<mxfile host="65bd71144e">
    <diagram name="Page-1" id="e7e014a7-5840-1c2e-5031-d8a46d1fe8dd">
        <mxGraphModel dx="1753" dy="938" grid="1" gridSize="10" guides="1" tooltips="1" connect="1" arrows="1" fold="1" page="1" pageScale="1" pageWidth="1169" pageHeight="826" background="none" math="0" shadow="0">
            <root>
                <mxCell id="0"/>
                <mxCell id="1" parent="0"/>
                <mxCell id="2" value="CLIENT" style="swimlane;whiteSpace=wrap;startSize=23;" parent="1" vertex="1">
                    <mxGeometry x="164.5" y="128" width="280" height="902" as="geometry"/>
                </mxCell>
                <mxCell id="kW0idx2W1re05_FDhmMN-83" style="edgeStyle=orthogonalEdgeStyle;rounded=0;orthogonalLoop=1;jettySize=auto;html=1;" parent="2" source="5" target="kW0idx2W1re05_FDhmMN-82" edge="1">
                    <mxGeometry relative="1" as="geometry"/>
                </mxCell>
                <mxCell id="5" value="" style="ellipse;shape=startState;fillColor=#000000;strokeColor=#ff0000;" parent="2" vertex="1">
                    <mxGeometry x="125" y="40" width="30" height="30" as="geometry"/>
                </mxCell>
                <mxCell id="kW0idx2W1re05_FDhmMN-76" value="Utilizator" style="shape=umlActor;verticalLabelPosition=bottom;verticalAlign=top;html=1;outlineConnect=0;" parent="2" vertex="1">
                    <mxGeometry x="25.5" y="32" width="30" height="60" as="geometry"/>
                </mxCell>
                <mxCell id="9" style="edgeStyle=none;html=1;" edge="1" parent="2" source="kW0idx2W1re05_FDhmMN-82" target="7">
                    <mxGeometry relative="1" as="geometry"/>
                </mxCell>
                <mxCell id="kW0idx2W1re05_FDhmMN-82" value="Utilizatorul introduce datele pentru înregistrare" style="rounded=0;whiteSpace=wrap;html=1;" parent="2" vertex="1">
                    <mxGeometry x="89" y="92" width="102" height="64" as="geometry"/>
                </mxCell>
                <mxCell id="60" value="" style="edgeStyle=orthogonalEdgeStyle;rounded=0;html=1;" edge="1" parent="2" source="kW0idx2W1re05_FDhmMN-112" target="59">
                    <mxGeometry relative="1" as="geometry"/>
                </mxCell>
                <mxCell id="kW0idx2W1re05_FDhmMN-112" value="Derivează o cheie de 256 de biți folosind PBKDF2 din parola utilizatorului" style="rounded=0;whiteSpace=wrap;html=1;" parent="2" vertex="1">
                    <mxGeometry x="79.5" y="502" width="123" height="68" as="geometry"/>
                </mxCell>
                <mxCell id="11" style="edgeStyle=none;html=1;" edge="1" parent="2" source="7" target="10">
                    <mxGeometry relative="1" as="geometry"/>
                </mxCell>
                <mxCell id="7" value="Utilizatorul validează formularul de înregistrare" style="rounded=0;whiteSpace=wrap;html=1;" vertex="1" parent="2">
                    <mxGeometry x="89" y="182" width="102" height="64" as="geometry"/>
                </mxCell>
                <mxCell id="29" style="edgeStyle=orthogonalEdgeStyle;html=1;exitX=0.75;exitY=0.5;exitDx=0;exitDy=0;exitPerimeter=0;entryX=0.5;entryY=0;entryDx=0;entryDy=0;rounded=0;" edge="1" parent="2" source="10" target="12">
                    <mxGeometry relative="1" as="geometry"/>
                </mxCell>
                <mxCell id="33" style="edgeStyle=orthogonalEdgeStyle;rounded=0;html=1;exitX=0.25;exitY=0.5;exitDx=0;exitDy=0;exitPerimeter=0;entryX=0.5;entryY=0;entryDx=0;entryDy=0;" edge="1" parent="2" source="10" target="32">
                    <mxGeometry relative="1" as="geometry"/>
                </mxCell>
                <mxCell id="10" value="" style="shape=line;html=1;strokeWidth=6;strokeColor=#ff0000;" vertex="1" parent="2">
                    <mxGeometry x="102.25" y="272" width="75.5" height="3.78" as="geometry"/>
                </mxCell>
                <mxCell id="31" value="" style="edgeStyle=orthogonalEdgeStyle;rounded=0;html=1;" edge="1" parent="2" source="12" target="30">
                    <mxGeometry relative="1" as="geometry"/>
                </mxCell>
                <mxCell id="12" value="Date în format invalid" style="rounded=0;whiteSpace=wrap;html=1;" vertex="1" parent="2">
                    <mxGeometry x="175.5" y="302" width="84" height="42" as="geometry"/>
                </mxCell>
                <mxCell id="30" value="" style="ellipse;html=1;shape=endState;fillColor=#000000;strokeColor=#ff0000;" vertex="1" parent="2">
                    <mxGeometry x="202.5" y="372" width="30" height="30" as="geometry"/>
                </mxCell>
                <mxCell id="57" style="edgeStyle=orthogonalEdgeStyle;rounded=0;html=1;entryX=0.5;entryY=0;entryDx=0;entryDy=0;" edge="1" parent="2" source="32" target="56">
                    <mxGeometry relative="1" as="geometry"/>
                </mxCell>
                <mxCell id="32" value="Date în format valid" style="rounded=0;whiteSpace=wrap;html=1;" vertex="1" parent="2">
                    <mxGeometry x="25.5" y="302" width="84" height="42" as="geometry"/>
                </mxCell>
                <mxCell id="58" value="" style="edgeStyle=orthogonalEdgeStyle;rounded=0;html=1;" edge="1" parent="2" source="56" target="kW0idx2W1re05_FDhmMN-112">
                    <mxGeometry relative="1" as="geometry"/>
                </mxCell>
                <mxCell id="56" value="Generează perechea de chei pentru RSA" style="rounded=0;whiteSpace=wrap;html=1;" vertex="1" parent="2">
                    <mxGeometry x="79.5" y="402" width="123" height="68" as="geometry"/>
                </mxCell>
                <mxCell id="62" value="" style="edgeStyle=orthogonalEdgeStyle;rounded=0;html=1;" edge="1" parent="2" source="59" target="61">
                    <mxGeometry relative="1" as="geometry"/>
                </mxCell>
                <mxCell id="59" value="Criptează cheia privată pentru RSA folosind AES cu cheia derivată din parolă" style="rounded=0;whiteSpace=wrap;html=1;" vertex="1" parent="2">
                    <mxGeometry x="79.5" y="602" width="123" height="68" as="geometry"/>
                </mxCell>
                <mxCell id="61" value="Trimite informațiile de înregistrare, cheia publică și cheia privată criptată către server" style="rounded=0;whiteSpace=wrap;html=1;" vertex="1" parent="2">
                    <mxGeometry x="75.25" y="704" width="131.5" height="68" as="geometry"/>
                </mxCell>
                <mxCell id="3" value="SERVER" style="swimlane;whiteSpace=wrap" parent="1" vertex="1">
                    <mxGeometry x="445" y="128" width="280" height="902" as="geometry"/>
                </mxCell>
                <mxCell id="67" style="edgeStyle=orthogonalEdgeStyle;rounded=0;html=1;" edge="1" parent="3" source="63" target="65">
                    <mxGeometry relative="1" as="geometry"/>
                </mxCell>
                <mxCell id="63" value="Verifică datele de înregistrare" style="rounded=0;whiteSpace=wrap;html=1;" vertex="1" parent="3">
                    <mxGeometry x="81.75" y="704" width="123" height="68" as="geometry"/>
                </mxCell>
                <mxCell id="69" style="edgeStyle=orthogonalEdgeStyle;rounded=0;html=1;exitX=0.25;exitY=0.5;exitDx=0;exitDy=0;exitPerimeter=0;entryX=0.5;entryY=0;entryDx=0;entryDy=0;" edge="1" parent="3" source="65" target="68">
                    <mxGeometry relative="1" as="geometry"/>
                </mxCell>
                <mxCell id="77" style="edgeStyle=orthogonalEdgeStyle;rounded=0;html=1;exitX=0.75;exitY=0.5;exitDx=0;exitDy=0;exitPerimeter=0;entryX=0.5;entryY=0;entryDx=0;entryDy=0;" edge="1" parent="3" source="65" target="76">
                    <mxGeometry relative="1" as="geometry"/>
                </mxCell>
                <mxCell id="65" value="" style="shape=line;html=1;strokeWidth=6;strokeColor=#ff0000;" vertex="1" parent="3">
                    <mxGeometry x="105.5" y="792" width="75.5" height="3.78" as="geometry"/>
                </mxCell>
                <mxCell id="79" style="edgeStyle=orthogonalEdgeStyle;rounded=0;html=1;entryX=0;entryY=0.5;entryDx=0;entryDy=0;exitX=0.5;exitY=1;exitDx=0;exitDy=0;" edge="1" parent="3" source="68" target="78">
                    <mxGeometry relative="1" as="geometry"/>
                </mxCell>
                <mxCell id="68" value="Date OK; utilizator înregistrat" style="rounded=0;whiteSpace=wrap;html=1;" vertex="1" parent="3">
                    <mxGeometry x="15" y="822" width="95" height="44" as="geometry"/>
                </mxCell>
                <mxCell id="80" style="edgeStyle=orthogonalEdgeStyle;rounded=0;html=1;entryX=1;entryY=0.5;entryDx=0;entryDy=0;exitX=0.5;exitY=1;exitDx=0;exitDy=0;" edge="1" parent="3" source="76" target="78">
                    <mxGeometry relative="1" as="geometry"/>
                </mxCell>
                <mxCell id="76" value="Eroare la înregistrare" style="rounded=0;whiteSpace=wrap;html=1;" vertex="1" parent="3">
                    <mxGeometry x="175" y="822" width="95" height="44" as="geometry"/>
                </mxCell>
                <mxCell id="78" value="" style="ellipse;html=1;shape=endState;fillColor=#000000;strokeColor=#ff0000;" vertex="1" parent="3">
                    <mxGeometry x="128.25" y="866" width="30" height="30" as="geometry"/>
                </mxCell>
                <mxCell id="kW0idx2W1re05_FDhmMN-75" value="&lt;b&gt;&lt;font style=&quot;font-size: 36px;&quot;&gt;REGISTER&lt;/font&gt;&lt;/b&gt;" style="text;html=1;align=center;verticalAlign=middle;resizable=0;points=[];autosize=1;strokeColor=none;fillColor=none;" parent="1" vertex="1">
                    <mxGeometry x="340" y="50" width="210" height="60" as="geometry"/>
                </mxCell>
                <mxCell id="kW0idx2W1re05_FDhmMN-127" value="CLIENT" style="swimlane;whiteSpace=wrap;startSize=23;" parent="1" vertex="1">
                    <mxGeometry x="880.25" y="128" width="280" height="512" as="geometry"/>
                </mxCell>
                <mxCell id="kW0idx2W1re05_FDhmMN-128" style="edgeStyle=orthogonalEdgeStyle;rounded=0;orthogonalLoop=1;jettySize=auto;html=1;" parent="kW0idx2W1re05_FDhmMN-127" source="kW0idx2W1re05_FDhmMN-129" target="kW0idx2W1re05_FDhmMN-132" edge="1">
                    <mxGeometry relative="1" as="geometry"/>
                </mxCell>
                <mxCell id="kW0idx2W1re05_FDhmMN-129" value="" style="ellipse;shape=startState;fillColor=#000000;strokeColor=#ff0000;" parent="kW0idx2W1re05_FDhmMN-127" vertex="1">
                    <mxGeometry x="125" y="40" width="30" height="30" as="geometry"/>
                </mxCell>
                <mxCell id="kW0idx2W1re05_FDhmMN-131" value="Utilizator" style="shape=umlActor;verticalLabelPosition=bottom;verticalAlign=top;html=1;outlineConnect=0;" parent="kW0idx2W1re05_FDhmMN-127" vertex="1">
                    <mxGeometry x="45.5" y="32" width="30" height="60" as="geometry"/>
                </mxCell>
                <mxCell id="kW0idx2W1re05_FDhmMN-132" value="Trimite detaliile de autentificare" style="rounded=0;whiteSpace=wrap;html=1;" parent="kW0idx2W1re05_FDhmMN-127" vertex="1">
                    <mxGeometry x="94.75" y="102" width="92" height="44" as="geometry"/>
                </mxCell>
                <mxCell id="kW0idx2W1re05_FDhmMN-137" value="" style="edgeStyle=orthogonalEdgeStyle;rounded=0;orthogonalLoop=1;jettySize=auto;html=1;" parent="kW0idx2W1re05_FDhmMN-127" source="kW0idx2W1re05_FDhmMN-138" target="kW0idx2W1re05_FDhmMN-140" edge="1">
                    <mxGeometry relative="1" as="geometry"/>
                </mxCell>
                <mxCell id="kW0idx2W1re05_FDhmMN-138" value="Decriptează cheia privată primită" style="rounded=0;whiteSpace=wrap;html=1;" parent="kW0idx2W1re05_FDhmMN-127" vertex="1">
                    <mxGeometry x="79.25" y="292" width="123" height="68" as="geometry"/>
                </mxCell>
                <mxCell id="kW0idx2W1re05_FDhmMN-167" value="" style="edgeStyle=orthogonalEdgeStyle;rounded=0;orthogonalLoop=1;jettySize=auto;html=1;entryX=0.5;entryY=0;entryDx=0;entryDy=0;" parent="kW0idx2W1re05_FDhmMN-127" source="kW0idx2W1re05_FDhmMN-140" target="kW0idx2W1re05_FDhmMN-170" edge="1">
                    <mxGeometry relative="1" as="geometry">
                        <mxPoint x="140" y="552" as="targetPoint"/>
                    </mxGeometry>
                </mxCell>
                <mxCell id="kW0idx2W1re05_FDhmMN-140" value="Stochează în mod sigur JWT și perechea de chei" style="html=1;whiteSpace=wrap;" parent="kW0idx2W1re05_FDhmMN-127" vertex="1">
                    <mxGeometry x="83.5" y="392" width="114.5" height="62" as="geometry"/>
                </mxCell>
                <mxCell id="kW0idx2W1re05_FDhmMN-170" value="" style="ellipse;html=1;shape=endState;fillColor=#000000;strokeColor=#ff0000;" parent="kW0idx2W1re05_FDhmMN-127" vertex="1">
                    <mxGeometry x="125" y="472" width="30" height="30" as="geometry"/>
                </mxCell>
                <mxCell id="105" style="edgeStyle=orthogonalEdgeStyle;rounded=0;html=1;" edge="1" parent="kW0idx2W1re05_FDhmMN-127" source="103" target="kW0idx2W1re05_FDhmMN-138">
                    <mxGeometry relative="1" as="geometry"/>
                </mxCell>
                <mxCell id="103" value="Derivează o cheie de 256 de biți folosind PBKDF2 din parola utilizatorului" style="rounded=0;whiteSpace=wrap;html=1;" vertex="1" parent="kW0idx2W1re05_FDhmMN-127">
                    <mxGeometry x="78.5" y="197" width="123" height="68" as="geometry"/>
                </mxCell>
                <mxCell id="kW0idx2W1re05_FDhmMN-155" value="&lt;b&gt;&lt;font style=&quot;font-size: 36px;&quot;&gt;LOGIN&lt;/font&gt;&lt;/b&gt;" style="text;html=1;align=center;verticalAlign=middle;resizable=0;points=[];autosize=1;strokeColor=none;fillColor=none;" parent="1" vertex="1">
                    <mxGeometry x="1090.5" y="50" width="140" height="60" as="geometry"/>
                </mxCell>
                <mxCell id="kW0idx2W1re05_FDhmMN-146" value="SERVER" style="swimlane;whiteSpace=wrap" parent="1" vertex="1">
                    <mxGeometry x="1160.75" y="128" width="280" height="512" as="geometry"/>
                </mxCell>
                <mxCell id="kW0idx2W1re05_FDhmMN-147" value="" style="edgeStyle=orthogonalEdgeStyle;rounded=0;orthogonalLoop=1;jettySize=auto;html=1;" parent="kW0idx2W1re05_FDhmMN-146" source="kW0idx2W1re05_FDhmMN-148" target="kW0idx2W1re05_FDhmMN-150" edge="1">
                    <mxGeometry relative="1" as="geometry"/>
                </mxCell>
                <mxCell id="kW0idx2W1re05_FDhmMN-148" value="Verifică datele" style="rounded=0;whiteSpace=wrap;html=1;" parent="kW0idx2W1re05_FDhmMN-146" vertex="1">
                    <mxGeometry x="98" y="104" width="84" height="42" as="geometry"/>
                </mxCell>
                <mxCell id="81" style="edgeStyle=orthogonalEdgeStyle;rounded=0;html=1;exitX=0.25;exitY=0.5;exitDx=0;exitDy=0;exitPerimeter=0;entryX=0.5;entryY=0;entryDx=0;entryDy=0;" edge="1" parent="kW0idx2W1re05_FDhmMN-146" source="kW0idx2W1re05_FDhmMN-150" target="kW0idx2W1re05_FDhmMN-163">
                    <mxGeometry relative="1" as="geometry"/>
                </mxCell>
                <mxCell id="92" style="edgeStyle=orthogonalEdgeStyle;rounded=0;html=1;exitX=0.75;exitY=0.5;exitDx=0;exitDy=0;exitPerimeter=0;entryX=0.5;entryY=0;entryDx=0;entryDy=0;" edge="1" parent="kW0idx2W1re05_FDhmMN-146" source="kW0idx2W1re05_FDhmMN-150" target="kW0idx2W1re05_FDhmMN-152">
                    <mxGeometry relative="1" as="geometry"/>
                </mxCell>
                <mxCell id="kW0idx2W1re05_FDhmMN-150" value="" style="shape=line;html=1;strokeWidth=6;strokeColor=#ff0000;" parent="kW0idx2W1re05_FDhmMN-146" vertex="1">
                    <mxGeometry x="102.25" y="172" width="75.5" height="3.78" as="geometry"/>
                </mxCell>
                <mxCell id="kW0idx2W1re05_FDhmMN-151" value="" style="edgeStyle=orthogonalEdgeStyle;rounded=0;orthogonalLoop=1;jettySize=auto;html=1;" parent="kW0idx2W1re05_FDhmMN-146" source="kW0idx2W1re05_FDhmMN-152" target="kW0idx2W1re05_FDhmMN-153" edge="1">
                    <mxGeometry relative="1" as="geometry"/>
                </mxCell>
                <mxCell id="kW0idx2W1re05_FDhmMN-152" value="Autentificare eșuată" style="rounded=0;whiteSpace=wrap;html=1;" parent="kW0idx2W1re05_FDhmMN-146" vertex="1">
                    <mxGeometry x="177.75" y="210" width="84" height="42" as="geometry"/>
                </mxCell>
                <mxCell id="kW0idx2W1re05_FDhmMN-153" value="" style="ellipse;html=1;shape=endState;fillColor=#000000;strokeColor=#ff0000;" parent="kW0idx2W1re05_FDhmMN-146" vertex="1">
                    <mxGeometry x="204.75" y="272" width="30" height="30" as="geometry"/>
                </mxCell>
                <mxCell id="kW0idx2W1re05_FDhmMN-163" value="Autentificare reușită; trimite JWT și cheile pentru RSA" style="rounded=0;whiteSpace=wrap;html=1;" parent="kW0idx2W1re05_FDhmMN-146" vertex="1">
                    <mxGeometry x="19.25" y="202" width="110.75" height="58" as="geometry"/>
                </mxCell>
                <mxCell id="kW0idx2W1re05_FDhmMN-156" style="edgeStyle=orthogonalEdgeStyle;rounded=0;orthogonalLoop=1;jettySize=auto;html=1;" parent="1" source="kW0idx2W1re05_FDhmMN-132" target="kW0idx2W1re05_FDhmMN-148" edge="1">
                    <mxGeometry relative="1" as="geometry"/>
                </mxCell>
                <mxCell id="64" style="edgeStyle=orthogonalEdgeStyle;rounded=0;html=1;" edge="1" parent="1" source="61" target="63">
                    <mxGeometry relative="1" as="geometry"/>
                </mxCell>
                <mxCell id="104" style="edgeStyle=orthogonalEdgeStyle;rounded=0;html=1;exitX=0;exitY=0.5;exitDx=0;exitDy=0;" edge="1" parent="1" source="kW0idx2W1re05_FDhmMN-163" target="103">
                    <mxGeometry relative="1" as="geometry"/>
                </mxCell>
            </root>
        </mxGraphModel>
    </diagram>
</mxfile>